# AST/ASF file generated using VICON BodyLanguage
# -----------------------------------------------
:version 1.10
:name VICON
:units
  mass 1.0
  length 0.45
  angle deg
:documentation
   .ast/.asf automatically generated from VICON data using
   VICON BodyBuilder and BodyLanguage model FoxedUp or BRILLIANT.MOD
:root
   order TX TY TZ RX RY RZ
   axis XYZ
   position 0 0 0  
   orientation 0 0 0 
:bonedata
  begin
     id 1 
     name lhipjoint
     direction 0.702568 -0.596508 0.388042 
     length 2.56661 
     axis 0 0 0  XYZ
  end
  begin
     id 2 
     name lfemur
     direction 0.34202 -0.939693 0  
     length 6.58374  
     axis 0 0 20  XYZ
    dof rx ry rz
    limits (-160.0 20.0)
           (-70.0 70.0)
           (-60.0 70.0)
  end
  begin
     id 3 
     name ltibia
     direction 0.34202 -0.939693 0   
     length 6.62538   
     axis 0 0 20   XYZ
    dof rx
    limits (-10.0 170.0)
  end
  begin
     id 4 
     name lfoot
     direction 0.10455 -0.287249 0.952133   
     length 2.26699   
     axis -90 7.62852e-016 20   XYZ
    dof rx rz
    limits (-45.0 90.0)
           (-70.0 20.0)
  end
  begin
     id 5 
     name ltoes
     direction 1.53572e-011 -4.22322e-011 1   
     length 1.12949   
     axis -90 7.62852e-016 20   XYZ
    dof rx
    limits (-90.0 20.0)
  end
  begin
     id 6 
     name rhipjoint
     direction -0.728055 -0.574632 0.373811   
     length 2.66432  
     axis 0 0 0  XYZ 
  end
  begin
     id 7 
     name rfemur
     direction -0.34202 -0.939693 0   
     length 6.66732   
     axis 0 0 -20   XYZ
    dof rx ry rz
    limits (-160.0 20.0)
           (-70.0 70.0)
           (-70.0 60.0)
  end
  begin
     id 8 
     name rtibia
     direction -0.34202 -0.939693 0   
     length 6.59288   
     axis 0 0 -20   XYZ
    dof rx
    limits (-10.0 170.0)
 end
 begin
     id 9 
     name rfoot
     direction -0.119193 -0.327479 0.93731   
     length 2.38061  
     axis -90 -7.62852e-016 -20   XYZ
    dof rx rz
    limits (-45.0 90.0)
           (-20.0 70.0)
  end
  begin
     id 10 
     name rtoes
     direction -1.53547e-011 -4.21827e-011 1   
     length 1.17899   
     axis -90 -7.62852e-016 -20   XYZ
    dof rx
    limits (-90.0 20.0)
  end
  begin
     id 11 
     name lowerback
     direction -0.000416114 0.999912 -0.0132284   
     length 2.12109   
     axis 0 0 0   XYZ
    dof rx ry rz
    limits (-20.0 45.0)
           (-30.0 30.0)
           (-30.0 30.0)
  end
  begin
     id 12 
     name upperback
     direction -0.00136371 0.99809 0.0617608   
     length 2.10067   
     axis 0 0 0   XYZ
    dof rx ry rz
    limits (-20.0 45.0)
           (-30.0 30.0)
           (-30.0 30.0)
  end
  begin
     id 13 
     name thorax
     direction -3.43026e-005 0.997776 0.0666515   
     length 2.10618   
     axis 0 0 0   XYZ
    dof rx ry rz
    limits (-20.0 45.0)
           (-30.0 30.0)
           (-30.0 30.0)
  end
  begin
     id 14 
     name lowerneck
     direction 0.0398646 0.998418 0.0396592   
     length 1.83817   
     axis 0 0 0   XYZ
    dof rx ry rz
    limits (-20.0 45.0)
           (-30.0 30.0)
           (-30.0 30.0)
  end
  begin
     id 15 
     name upperneck
     direction -0.0367268 0.961527 -0.272244   
     length 1.81975   
     axis 0 0 0   XYZ
    dof rx ry rz
    limits (-20.0 45.0)
           (-30.0 30.0)
           (-30.0 30.0)
  end
  begin
     id 16
     name head
     direction -0.0182665 0.99536 -0.0944669  
     length 1.86026  
     axis 0 0 0   XYZ
    dof rx ry rz
    limits (-20.0 45.0)
           (-30.0 30.0)
           (-30.0 30.0)
  end
  begin
     id 17 
     name lclavicle
     direction 0.924239 0.361045 0.124212  
     length 3.26878  
     axis 0 0 0   XYZ
    dof ry rz
    limits (-20.0 10.0)
           (0.0 20.0)
  end
  begin
     id 18 
     name lhumerus
     direction 1 -4.48968e-011 -2.56583e-027   
     length 4.58538   
     axis 180 -30 -90   XYZ
    dof rx ry rz
    limits (-60.0 90.0)
           (-90.0 90.0)
           (-90.0 90.0)
  end
  begin
     id 19
     name lradius
     direction 1 -4.4898e-011 -5.50375e-027   
     length 2.68935   
     axis 180 -30 -90   XYZ
    dof rx
    limits (-10.0 170.0)
  end
  begin
     id 20
     name lwrist
     direction 1 -4.48939e-011 -1.48955e-026   
     length 1.34468   
     axis 9.0955e-015 90 90   XYZ
    dof ry
    limits (-180.0 0.0)
 end
  begin
     id 21 
     name lhand
     direction 1 -4.48936e-011 -2.97907e-026   
     length 0.585058   
     axis 1.90115e-014 90 90   XYZ
    dof rx rz
    limits (-90.0 90.0)
           (-45.0 45.0)
  end
  begin
     id 22 
     name lfingers
     direction 1 -4.49082e-011 -5.96235e-026   
     length 0.471689   
     axis 3.80223e-014 90 90   XYZ
    dof rx
    limits (0.0 90.0)
  end
  begin
     id 23
     name lthumb
     direction 0.707107 -6.3489e-011 0.707107   
     length 0.677253   
     axis -90 45 -3.84942e-014   XYZ
    dof rx rz
    limits (-45.0 45.0)
           (-45.0 45.0)
  end
  begin
     id 24 
     name rclavicle
     direction -0.923098 0.371783 0.0983239   
     length 3.19656  
     axis 0 0 0   XYZ 
    dof ry rz
    limits (-10.0 20.0)
           (-20.0 0.0)
  end
  begin
     id 25 
     name rhumerus
     direction -1 -4.48976e-011 -2.5492e-027  
     length 4.4745   
     axis 180 30 90   XYZ
    dof rx ry rz
    limits (-90.0 60.0)
           (-90.0 90.0)
           (-90.0 90.0)
  end
  begin
     id 26 
     name rradius
     direction -1 -4.48941e-011 -4.36555e-027   
     length 2.93896   
     axis 180 30 90   XYZ
    dof rx
    limits (-10.0 170.0)
  end
  begin
     id 27 
     name rwrist
     direction -1 -4.49044e-011 -1.49032e-026   
     length 1.46948   
     axis 9.0955e-015 -90 -90   XYZ
    dof ry
    limits (-180.0 0.0)
  end
  begin
     id 28
     name rhand
     direction -1 -4.48826e-011 -2.97749e-026   
     length 0.405092   
     axis 1.90115e-014 -90 -90   XYZ
    dof rx rz
    limits (-90.0 90.0)
           (-45.0 45.0)
  end
  begin
     id 29
     name rfingers
     direction -1 -4.49209e-011 -5.96602e-026   
     length 0.326596   
     axis 3.80223e-014 -90 -90   XYZ
    dof rx
    limits (0.0 90.0)
  end
  begin
     id 30
     name rthumb
     direction -0.707107 -6.34776e-011 0.707107   
     length 0.468928   
     axis -90 -45 3.84942e-014   XYZ
    dof rx rz
    limits (-45.0 45.0)
           (-45.0 45.0)
  end
:hierarchy
  begin
    root lhipjoint rhipjoint lowerback
    lhipjoint lfemur
    lfemur ltibia
    ltibia lfoot
    lfoot ltoes
    rhipjoint rfemur
    rfemur rtibia
    rtibia rfoot
    rfoot rtoes
    lowerback upperback
    upperback thorax
    thorax lowerneck lclavicle rclavicle
    lowerneck upperneck
    upperneck head
    lclavicle lhumerus
    lhumerus lradius
    lradius lwrist
    lwrist lhand lthumb
    lhand lfingers
    rclavicle rhumerus
    rhumerus rradius
    rradius rwrist
    rwrist rhand rthumb
    rhand rfingers
  end

#!OML:ASF H:\Punching\Project 1\Capture day 1\Session 1\female.ASF
:FULLY-SPECIFIED
:DEGREES
747
root 2.67199 15.6735 6.53707 15.0692 -6.05519 -2.92856
lowerback -3.55911 0.474771 1.93828
upperback -6.358 0.620988 0.176405
thorax -4.55325 0.22174 -0.904684
lowerneck -11.4368 1.01461 8.55868
upperneck 21.1882 0.41941 -3.57657
head 8.51144 0.508371 -2.5971
rclavicle -5.41222e-015 -6.36111e-015
rhumerus -37.1678 10.2525 -90.6598
rradius 33.5682
rwrist -8.06198
rhand -6.54197 -9.58568
rfingers 7.12502
rthumb 19.3113 -38.6468
lclavicle -5.41222e-015 -6.36111e-015
lhumerus -48.0805 0.335492 82.8201
lradius 55.9433
lwrist 2.1266
lhand -7.37424 17.3581
lfingers 7.12502
lthumb 18.5109 46.4974
rfemur -20.4803 0.65609 18.2217
rtibia 29.4217
rfoot -18.4732 -18.0876
rtoes -4.19032
lfemur -18.0794 -7.11272 -17.1006
ltibia 27.7732
lfoot -22.7362 22.1992
ltoes 3.05922
748
root 2.65957 15.6683 6.52928 14.9388 -6.11635 -2.76963
lowerback -3.4275 0.488913 1.5793
upperback -6.32005 0.644452 0.182385
thorax -4.58938 0.25017 -0.698838
lowerneck -11.5109 0.807467 8.351
upperneck 21.4203 0.111131 -3.32785
head 8.58382 0.375606 -2.51414
rclavicle 9.43917e-015 -5.1684e-015
rhumerus -36.9079 11.2387 -91.2798
rradius 34.5673
rwrist -9.76116
rhand -6.61133 -9.70265
rfingers 7.12502
rthumb 19.2446 -38.7705
lclavicle 9.43917e-015 -5.1684e-015
lhumerus -47.69 -0.478315 83.0933
lradius 57.8941
lwrist 2.55401
lhand -8.14189 17.7309
lfingers 7.12502
lthumb 17.7723 46.9387
rfemur -21.1831 -0.22759 18.1454
rtibia 30.8235
rfoot -18.5768 -17.1593
rtoes -4.78196
lfemur -17.9233 -6.96467 -17.2512
ltibia 27.6662
lfoot -22.663 22.0965
ltoes 2.92235
749
root 2.64574 15.6634 6.52131 14.7968 -6.2044 -2.58626
lowerback -3.28582 0.506181 1.18881
upperback -6.26954 0.670912 0.177921
thorax -4.61877 0.281382 -0.486307
lowerneck -11.5967 0.587811 8.13076
upperneck 21.6511 -0.217961 -3.06151
head 8.65846 0.234116 -2.42545
rclavicle 8.64092e-015 -8.54774e-015
rhumerus -36.5991 12.2681 -91.9396
rradius 35.6185
rwrist -11.3598
rhand -6.6446 -9.8025
rfingers 7.12502
rthumb 19.2126 -38.8735
lclavicle 8.64092e-015 -8.54774e-015
lhumerus -47.2633 -1.34859 83.3677
lradius 59.9598
lwrist 2.93344
lhand -8.93031 18.0428
lfingers 7.12502
lthumb 17.0135 47.3177
rfemur -21.9663 -1.0583 18.0332
rtibia 32.3749
rfoot -18.6182 -16.2397
rtoes -5.43539
lfemur -17.7282 -6.81763 -17.4279
ltibia 27.511
lfoot -22.5714 22.0181
ltoes 2.78287
750
root 2.6304 15.6589 6.51308 14.6381 -6.3122 -2.3795
lowerback -3.12921 0.524197 0.773013
upperback -6.20256 0.696976 0.161634
thorax -4.64021 0.31328 -0.271977
lowerneck -11.6964 0.356127 7.89727
upperneck 21.8754 -0.567721 -2.77555
head 8.73449 0.084091 -2.33021
rclavicle 2.79339e-014 7.95139e-016
rhumerus -36.231 13.3343 -92.6371
rradius 36.7094
rwrist -12.8131
rhand -6.64451 -9.89045
rfingers 7.12502
rthumb 19.2127 -38.9614
lclavicle 2.79339e-014 7.95139e-016
lhumerus -46.798 -2.27025 83.6399
lradius 62.1336
lwrist 3.22689
lhand -9.76198 18.2626
lfingers 7.12502
lthumb 16.2128 47.6047
rfemur -22.811 -1.82923 17.8846
rtibia 34.0538
rfoot -18.5947 -15.3335
rtoes -6.09959
lfemur -17.4909 -6.66732 -17.6283
ltibia 27.3079
lfoot -22.453 21.9561
ltoes 2.62127
751
root 2.61337 15.6547 6.50445 14.4612 -6.43598 -2.1499
lowerback -2.94975 0.542365 0.335977
upperback -6.12348 0.721639 0.132518
thorax -4.66281 0.344994 -0.0592539
lowerneck -11.8003 0.112464 7.64854
upperneck 22.0892 -0.936912 -2.4692
head 8.80909 -0.0739547 -2.22764
rclavicle 1.8254e-014 -4.37326e-015
rhumerus -35.812 14.4264 -93.3686
rradius 37.8392
rwrist -14.1084
rhand -6.59946 -9.95696
rfingers 7.12502
rthumb 19.256 -39.0236
lclavicle 1.8254e-014 -4.37326e-015
lhumerus -46.2971 -3.24117 83.9092
lradius 64.4014
lwrist 3.41605
lhand -10.634 18.4084
lfingers 7.12502
lthumb 15.3731 47.8169
rfemur -23.7031 -2.52862 17.6968
rtibia 35.8356
rfoot -18.5054 -14.4446
rtoes -6.69745
lfemur -17.2111 -6.51215 -17.8501
ltibia 27.0577
lfoot -22.3117 21.9054
ltoes 2.44459
752
root 2.59453 15.6509 6.49575 14.2682 -6.56958 -1.90661
lowerback -2.74954 0.562006 -0.107889
upperback -6.03522 0.746343 0.0911115
thorax -4.68833 0.376549 0.144343
lowerneck -11.9065 -0.14481 7.38672
upperneck 22.2955 -1.32695 -2.14746
head 8.88319 -0.240914 -2.12002
rclavicle -1.67476e-014 4.37326e-015
rhumerus -35.3449 15.5366 -94.1308
rradius 39.0005
rwrist -15.2673
rhand -6.52779 -9.96273
rfingers 7.12502
rthumb 19.3249 -39.0225
lclavicle -1.67476e-014 4.37326e-015
lhumerus -45.7579 -4.26427 84.1812
lradius 66.739
lwrist 3.49263
lhand -11.5509 18.5002
lfingers 7.12502
lthumb 14.4898 47.9743
rfemur -24.6265 -3.14781 17.4763
rtibia 37.6889
rfoot -18.3428 -13.5754
rtoes -7.20084
lfemur -16.8906 -6.35148 -18.082
ltibia 26.7638
lfoot -22.1485 21.8605
ltoes 2.24936
753
root 2.57386 15.6475 6.48717 14.0532 -6.71319 -1.64868
lowerback -2.52638 0.585959 -0.554668
upperback -5.93661 0.774505 0.0350964
thorax -4.71677 0.409387 0.334133
lowerneck -12.0058 -0.416428 7.11424
upperneck 22.488 -1.73782 -1.81324
head 8.95323 -0.416992 -2.00863
rclavicle 1.68781e-014 -9.74045e-015
rhumerus -34.8327 16.6585 -94.9196
rradius 40.2031
rwrist -16.3477
rhand -6.47283 -9.89197
rfingers 7.12502
rthumb 19.3778 -38.9465
lclavicle 1.68781e-014 -9.74045e-015
lhumerus -45.1655 -5.34237 84.4561
lradius 69.1194
lwrist 3.47884
lhand -12.4807 18.5565
lfingers 7.12502
lthumb 13.5938 48.0927
rfemur -25.5619 -3.67779 17.2166
rtibia 39.5806
rfoot -18.103 -12.7246
rtoes -7.5725
lfemur -16.5251 -6.18628 -18.3254
ltibia 26.4312
lfoot -21.9705 21.8216
ltoes 2.04656
754
root 2.55135 15.6448 6.47935 13.8362 -6.85215 -1.38798
lowerback -2.29214 0.607096 -0.993242
upperback -5.83821 0.796698 -0.0268797
thorax -4.75234 0.43854 0.513019
lowerneck -12.1028 -0.694896 6.83855
upperneck 22.6767 -2.15761 -1.4819
head 9.02404 -0.597378 -1.8989
rclavicle 9.73734e-015 -1.49089e-014
rhumerus -34.2804 17.7961 -95.7314
rradius 41.4467
rwrist -17.3894
rhand -6.42504 -9.78229
rfingers 7.12502
rthumb 19.4237 -38.8322
lclavicle 9.73734e-015 -1.49089e-014
lhumerus -44.5382 -6.43884 84.7388
lradius 71.5475
lwrist 3.41744
lhand -13.4177 18.5828
lfingers 7.12502
lthumb 12.6906 48.1772
rfemur -26.51 -4.1303 16.9309
rtibia 41.4717
rfoot -17.7871 -11.8885
rtoes -7.82195
lfemur -16.1383 -6.01472 -18.5633
ltibia 26.067
lfoot -21.7795 21.7749
ltoes 1.83986
